<?xml version="1.0" standalone="no"?>
<!DOCTYPE svg PUBLIC "-//W3C//DTD SVG 20010904//EN"
 "http://www.w3.org/TR/2001/REC-SVG-20010904/DTD/svg10.dtd">
<svg version="1.0" xmlns="http://www.w3.org/2000/svg"
 width="1024.000000pt" height="1024.000000pt" viewBox="0 0 1024.000000 1024.000000"
 preserveAspectRatio="xMidYMid meet">

<g transform="translate(0.000000,1024.000000) scale(0.100000,-0.100000)"
fill="#000000" stroke="none">
<path d="M6120 8440 c-159 -22 -304 -131 -356 -266 l-17 -44 -356 0 c-198 0
-385 -5 -421 -11 -37 -6 -101 -27 -150 -51 -83 -40 -93 -48 -480 -434 -342
-339 -404 -397 -455 -421 l-60 -28 -797 -5 c-781 -5 -797 -5 -824 -25 -69 -52
-83 -151 -29 -221 52 -68 9 -65 903 -62 899 4 839 -1 984 75 59 31 113 81 395
367 425 430 450 453 503 485 l45 26 366 3 367 3 29 -63 c36 -76 109 -160 178
-203 140 -89 330 -98 478 -23 161 81 257 238 257 422 0 303 -255 520 -560 476z
m171 -20 c318 -60 479 -440 298 -705 -96 -142 -239 -212 -415 -203 -80 4 -103
10 -167 40 -92 44 -171 122 -215 211 -18 36 -32 70 -32 76 0 9 -94 11 -377 9
l-378 -3 -49 -25 c-33 -17 -101 -77 -203 -180 -84 -85 -153 -151 -153 -146 0
9 71 84 215 228 108 108 152 135 225 137 20 1 22 3 10 11 -10 7 -1 8 30 4 l45
-7 -19 22 c-19 21 -19 21 5 21 34 0 49 12 51 42 1 15 6 24 10 22 4 -3 8 2 8
10 0 9 5 16 10 16 6 0 10 18 10 40 l0 40 -75 2 c-41 1 -90 3 -107 4 -50 4
-138 -17 -188 -44 -25 -14 -47 -28 -50 -32 -3 -3 -23 -16 -45 -29 l-40 -23 35
31 c56 49 168 101 240 111 36 5 228 10 428 10 336 0 363 1 368 18 34 100 120
204 207 248 94 48 211 64 318 44z m-1653 -520 c-7 -10 -14 -17 -17 -15 -4 4
18 35 25 35 2 0 -1 -9 -8 -20z m-48 -424 c0 -2 -7 -9 -15 -16 -13 -11 -14 -10
-9 4 5 14 24 23 24 12z m-40 -40 c0 -2 -8 -10 -17 -17 -16 -13 -17 -12 -4 4
13 16 21 21 21 13z m-545 -496 c-3 -5 -12 -10 -18 -10 -7 0 -6 4 3 10 19 12
23 12 15 0z"/>
<path d="M6105 8136 c-58 -36 -88 -86 -93 -155 -13 -181 201 -280 329 -152 84
83 75 227 -18 298 -30 23 -48 28 -107 31 -61 3 -76 0 -111 -22z m195 -18 c53
-37 73 -71 78 -135 9 -145 -123 -236 -252 -173 -64 31 -91 79 -91 161 0 75 16
106 75 147 25 17 47 22 95 22 48 0 70 -5 95 -22z"/>
<path d="M5208 7873 c28 -2 76 -2 105 0 28 2 5 3 -53 3 -58 0 -81 -1 -52 -3z"/>
<path d="M7195 7417 c-16 -8 -44 -26 -61 -40 l-32 -27 -943 0 c-615 0 -960 -4
-989 -11 -25 -6 -79 -26 -120 -46 -70 -34 -97 -59 -381 -342 -169 -168 -314
-318 -324 -333 -10 -16 -14 -35 -10 -48 6 -19 14 -20 188 -20 l181 0 211 211
c117 116 234 225 260 242 l49 32 940 3 940 2 25 -24 c75 -70 180 -81 271 -30
152 86 154 316 5 409 -38 24 -61 30 -114 32 -40 2 -78 -2 -96 -10z m211 -42
c57 -44 88 -108 88 -185 1 -57 -3 -74 -29 -116 -52 -84 -161 -124 -252 -91
-36 13 -83 52 -83 67 0 7 -306 10 -952 8 l-953 -3 -42 -22 c-45 -24 -63 -28
-63 -14 0 5 27 17 60 27 33 11 60 23 60 27 0 5 5 5 10 2 6 -4 17 -2 24 4 8 7
29 14 47 16 19 2 35 9 37 15 2 5 21 10 43 10 21 0 39 5 39 10 0 6 9 10 20 10
16 0 20 6 18 30 -2 23 -7 30 -23 30 -28 0 -49 15 -41 29 4 6 3 11 -2 11 -6 0
-13 7 -16 16 -3 8 -2 12 4 9 6 -3 10 1 10 9 0 8 -5 18 -10 21 -6 4 -7 11 -4
17 11 17 -146 5 -185 -15 -37 -19 -71 -22 -71 -8 0 6 -22 1 -50 -11 -27 -11
-50 -25 -50 -30 0 -5 -4 -7 -10 -3 -5 3 -17 -6 -26 -20 -9 -14 -23 -24 -30
-21 -8 3 -14 2 -14 -2 0 -4 -10 -13 -22 -21 -22 -13 -21 -12 2 14 14 15 54 44
90 65 125 74 64 70 1132 70 623 0 958 3 958 10 0 18 76 60 121 68 59 11 125
-3 165 -33z m-2046 -74 c0 -6 -10 -8 -21 -6 -33 6 -36 15 -6 15 15 0 27 -4 27
-9z m-70 -11 c0 -5 -5 -10 -11 -10 -5 0 -7 5 -4 10 3 6 8 10 11 10 2 0 4 -4 4
-10z m-394 -145 c-9 -9 -16 -13 -16 -8 0 12 22 34 28 28 2 -2 -3 -11 -12 -20z
m419 -35 c-3 -5 -12 -10 -18 -10 -7 0 -6 4 3 10 19 12 23 12 15 0z m-495 -45
c-7 -8 -16 -15 -21 -15 -5 0 -1 8 9 18 20 22 31 19 12 -3z m-82 -75 c-7 -10
-14 -17 -17 -15 -4 4 18 35 25 35 2 0 -1 -9 -8 -20z m382 7 c0 -1 -50 -52
-112 -112 -61 -61 -105 -101 -98 -90 8 11 34 39 58 63 23 23 40 47 37 52 -3 6
1 10 10 10 8 0 32 18 52 40 31 34 53 49 53 37z m-230 -230 c0 -2 -12 -14 -27
-28 -20 -18 -24 -19 -13 -4 18 24 40 42 40 32z m-85 -87 c-16 -16 -33 -30 -38
-30 -9 0 53 60 62 60 3 0 -8 -13 -24 -30z m-81 -81 c-12 -14 -29 -19 -63 -18
l-46 2 45 6 c53 8 73 18 64 33 -5 7 -2 8 5 4 9 -6 8 -13 -5 -27z"/>
<path d="M5417 7266 c-6 -15 1 -26 15 -26 11 0 10 27 -1 34 -5 3 -11 0 -14 -8z"/>
<path d="M5425 7220 c3 -5 8 -10 11 -10 2 0 4 5 4 10 0 6 -5 10 -11 10 -5 0
-7 -4 -4 -10z"/>
<path d="M6013 6449 c-314 -40 -566 -258 -650 -559 -25 -91 -25 -338 1 -429
83 -303 320 -514 630 -562 39 -7 118 -9 176 -6 125 6 259 45 360 104 82 48
206 170 254 251 117 194 146 473 73 688 -32 92 -49 125 -109 206 -128 174
-311 281 -528 308 -94 11 -117 11 -207 -1z m302 -32 c261 -74 424 -225 524
-482 40 -106 52 -295 26 -420 -56 -267 -212 -457 -457 -554 -168 -68 -402 -69
-566 -4 -231 92 -388 260 -453 486 -41 140 -33 369 17 519 16 50 34 72 31 39
0 -11 -4 -18 -8 -15 -13 8 -51 -191 -55 -285 -5 -131 32 -331 58 -315 4 2 7
-4 6 -13 0 -23 23 -84 40 -101 6 -7 12 -18 12 -23 0 -6 11 -20 25 -33 14 -13
25 -28 25 -34 0 -8 8 -9 25 -2 15 6 26 6 30 0 4 -6 -1 -13 -9 -16 -9 -3 -16
-10 -16 -16 0 -5 6 -6 13 -2 6 4 9 3 4 -1 -9 -10 41 -45 65 -45 9 0 18 6 21
13 2 6 7 -7 11 -31 5 -23 13 -42 19 -41 30 4 48 -2 41 -13 -4 -6 -3 -8 3 -5 6
4 10 59 11 132 l0 125 -39 0 -39 0 -1 43 c-1 23 -1 50 0 60 1 9 -3 17 -8 17
-19 0 -12 20 7 20 15 1 15 2 1 13 -20 15 -32 58 -15 51 9 -3 12 15 12 65 -1
61 -3 68 -18 60 -13 -7 -15 -5 -11 12 3 11 11 18 17 16 8 -3 12 36 15 137 2
93 7 143 14 148 7 4 8 8 4 8 -5 0 -5 5 -2 10 5 8 12 7 22 -2 14 -11 15 -10 10
7 -4 11 -2 27 3 35 7 11 10 11 10 2 0 -7 5 -10 11 -7 6 4 8 14 4 22 -5 14 -3
14 12 2 10 -7 15 -9 11 -5 -4 5 -3 15 3 22 7 8 6 14 -2 20 -8 4 -9 3 -5 -4 4
-7 3 -12 -2 -12 -5 0 -12 9 -15 20 -3 11 -1 20 5 20 5 0 6 5 2 12 -4 7 -3 8 4
4 6 -4 19 2 28 13 9 10 23 17 30 14 8 -3 14 0 14 7 0 6 -4 9 -9 5 -5 -3 -12
-1 -16 5 -3 6 1 13 10 16 14 6 14 9 -1 33 -16 24 -16 25 -1 12 15 -12 17 -11
17 3 0 14 -18 21 -42 17 -13 -2 -9 6 9 20 14 12 16 12 9 0 -6 -9 -5 -12 5 -9
7 2 14 19 16 36 4 30 2 32 -26 32 -16 0 -33 -5 -37 -11 -4 -8 -9 -7 -16 2 -7
11 -9 9 -5 -6 3 -15 -1 -21 -13 -22 -21 -2 -33 40 -17 56 8 8 8 11 0 11 -7 0
-15 -9 -18 -20 -4 -11 -15 -20 -26 -20 -11 0 -22 -7 -25 -15 -4 -8 -17 -15
-30 -15 -21 0 -29 -9 -25 -32 0 -4 -5 -5 -12 -3 -10 4 -111 -108 -112 -124 -1
-14 -24 -45 -29 -40 -12 12 80 133 152 200 86 81 212 147 327 173 39 8 79 17
90 20 37 9 250 -3 300 -17z m-537 -322 c-3 -3 -9 2 -12 12 -6 14 -5 15 5 6 7
-7 10 -15 7 -18z m-35 -70 c-3 -9 -8 -14 -10 -11 -3 3 -2 9 2 15 9 16 15 13 8
-4z"/>
<path d="M5983 6106 c-138 -45 -236 -151 -274 -298 -72 -275 75 -538 329 -588
139 -28 266 8 369 104 77 71 116 148 133 258 32 215 -63 414 -240 501 -58 29
-74 32 -170 34 -68 2 -120 -2 -147 -11z m197 -6 c36 -6 93 -24 127 -41 269
-130 299 -587 50 -758 -119 -81 -280 -95 -407 -34 -86 41 -140 89 -178 161
-67 125 -80 264 -38 397 43 136 142 232 274 266 80 21 89 22 172 9z"/>
<path d="M5850 4980 c0 -12 28 -21 35 -11 2 5 -4 11 -15 14 -11 3 -20 2 -20
-3z"/>
<path d="M1567 6412 c-14 -16 -17 -43 -17 -163 0 -100 4 -149 12 -157 9 -9 94
-12 320 -12 169 0 308 -3 308 -8 0 -4 -13 -23 -28 -42 -30 -36 -399 -520 -527
-690 -39 -52 -77 -105 -83 -117 -16 -30 -16 -265 0 -281 9 -9 148 -12 565 -12
518 0 554 1 561 18 4 9 7 76 7 148 0 97 -4 135 -14 148 -13 15 -44 16 -337 14
-178 -2 -324 -1 -324 2 0 3 52 73 115 155 64 83 152 199 198 258 45 60 124
163 176 230 52 67 116 153 142 191 l49 69 0 114 c0 100 -2 115 -20 133 -20 20
-33 20 -553 20 -505 0 -535 -1 -550 -18z"/>
<path d="M2858 6419 c-17 -9 -18 -55 -18 -737 0 -553 3 -731 12 -740 17 -17
1019 -17 1036 0 15 15 17 271 2 299 -10 18 -25 19 -345 19 l-334 0 -6 33 c-3
17 -5 75 -3 127 l3 95 280 3 c249 2 281 4 293 19 8 11 12 59 12 149 0 107 -3
136 -16 148 -13 14 -54 16 -292 16 l-277 0 -3 115 -3 115 319 0 c296 0 320 1
335 18 24 26 25 276 1 310 l-15 22 -482 0 c-309 0 -488 -4 -499 -11z"/>
<path d="M4053 6415 l-23 -16 0 -723 c0 -548 3 -725 12 -734 14 -14 343 -17
352 -4 3 5 6 113 7 240 l1 232 92 0 93 0 30 -47 c16 -27 81 -129 143 -228 62
-99 120 -186 128 -192 11 -9 65 -13 188 -13 143 0 174 3 184 15 18 22 9 39
-160 300 -78 120 -138 221 -132 223 6 2 37 20 69 41 206 133 272 412 155 651
-34 70 -134 170 -203 203 -116 57 -144 60 -544 64 -329 4 -372 2 -392 -12z
m841 -35 c36 -11 68 -24 71 -29 3 -5 -18 -1 -45 10 -28 10 -60 19 -73 19 -12
0 -29 5 -37 10 -26 17 11 12 84 -10z m125 -55 c43 -21 136 -129 164 -188 78
-167 57 -383 -51 -517 -44 -54 -67 -75 -107 -97 -21 -11 -11 3 33 44 34 33 62
66 62 72 0 7 5 9 12 5 7 -5 9 0 6 14 -4 14 -2 19 7 16 7 -3 16 5 20 18 4 13 8
25 9 28 1 3 7 14 13 25 6 11 14 49 17 85 3 36 8 75 12 87 3 13 3 31 -1 40 -4
10 -8 38 -10 63 -3 48 -57 170 -76 170 -5 0 -8 4 -4 9 8 13 -97 112 -113 106
-7 -3 -10 -1 -7 4 3 6 -3 14 -12 20 -28 16 -6 13 26 -4z m-381 -222 c-42 -2
-114 -2 -160 0 -46 1 -11 3 77 3 88 0 125 -2 83 -3z m137 -48 c97 -49 123
-182 51 -263 -42 -47 -93 -64 -216 -72 -63 -4 -135 -6 -160 -5 l-45 3 -3 182
-2 181 167 -3 c144 -3 174 -6 208 -23z m40 7 c-3 -3 -11 0 -18 7 -9 10 -8 11
6 5 10 -3 15 -9 12 -12z m29 -18 c3 -8 2 -12 -4 -9 -6 3 -10 10 -10 16 0 14 7
11 14 -7z m27 -41 c13 -16 12 -17 -3 -4 -10 7 -18 15 -18 17 0 8 8 3 21 -13z
m26 -110 c-3 -10 -5 -4 -5 12 0 17 2 24 5 18 2 -7 2 -21 0 -30z m-46 -119
c-37 -42 -41 -36 -6 10 14 18 26 39 26 47 1 8 3 7 6 -4 3 -10 -8 -32 -26 -53z
m-51 -44 c-8 -5 -19 -10 -25 -10 -5 0 -3 5 5 10 8 5 20 10 25 10 6 0 3 -5 -5
-10z m-50 -20 c-8 -5 -22 -9 -30 -9 -10 0 -8 3 5 9 27 12 43 12 25 0z m-127
-17 c-7 -2 -21 -2 -30 0 -10 3 -4 5 12 5 17 0 24 -2 18 -5z m65 0 c-10 -2 -26
-2 -35 0 -10 3 -2 5 17 5 19 0 27 -2 18 -5z m292 -193 c-8 -5 -17 -7 -19 -4
-3 3 1 9 9 14 8 5 17 7 19 4 3 -3 -1 -9 -9 -14z m27 -147 c135 -204 243 -376
243 -388 0 -9 -21 -13 -67 -13 -56 0 -63 2 -38 9 17 5 38 7 47 5 9 -2 19 2 22
10 3 8 2 14 -2 14 -4 0 -8 9 -9 19 -2 19 -91 163 -105 169 -5 2 -8 9 -8 16 0
7 -18 38 -40 70 -22 31 -40 60 -40 64 0 6 -46 69 -80 109 -12 15 -13 23 -2 23
4 0 40 -48 79 -107z m-504 80 c-7 -2 -21 -2 -30 0 -10 3 -4 5 12 5 17 0 24 -2
18 -5z m216 -177 c-3 -3 -11 5 -18 17 -13 21 -12 21 5 5 10 -10 16 -20 13 -22z
m29 -51 c-3 -3 -9 2 -12 12 -6 14 -5 15 5 6 7 -7 10 -15 7 -18z m97 -151 c9
-15 12 -23 6 -20 -11 7 -35 46 -28 46 3 0 12 -12 22 -26z m131 -96 l59 -2 -49
-3 c-65 -5 -88 1 -105 29 l-14 23 25 -22 c19 -18 38 -23 84 -25z m122 -5 c-10
-2 -28 -2 -40 0 -13 2 -5 4 17 4 22 1 32 -1 23 -4z"/>
<path d="M5505 4769 c-335 -29 -587 -240 -681 -569 -24 -86 -24 -293 0 -399
47 -211 186 -392 376 -491 329 -171 762 -88 983 190 169 212 219 514 128 776
-40 118 -83 186 -176 279 -68 69 -96 89 -185 133 -144 70 -281 96 -445 81z
m192 -20 c93 -13 173 -39 268 -87 101 -51 239 -191 289 -292 76 -155 98 -301
72 -480 -36 -241 -149 -422 -333 -532 -110 -65 -311 -129 -297 -95 3 9 22 14
50 15 55 0 120 32 116 57 -2 10 1 14 7 10 6 -3 11 -2 11 3 0 14 39 22 46 10 4
-6 10 -6 16 0 6 6 17 8 26 5 10 -4 13 -2 8 5 -4 7 -1 12 8 12 9 0 16 5 16 10
0 6 9 10 21 10 11 0 27 7 35 15 9 8 11 15 6 15 -5 0 -12 -3 -16 -7 -14 -14
-33 -10 -45 11 -10 15 -10 18 -1 9 7 -6 19 -9 27 -6 11 4 13 30 12 124 -1 109
-3 119 -19 119 -11 0 -26 10 -35 23 l-17 22 6 -25 c6 -25 6 -25 -5 -2 -15 27
-29 29 -29 3 0 -10 -9 -21 -21 -24 -11 -3 -25 -19 -32 -36 -7 -19 -22 -34 -39
-40 -16 -6 -31 -17 -34 -26 -3 -8 -10 -15 -16 -15 -5 0 -6 5 -3 10 10 16 -12
12 -29 -6 -9 -8 -21 -12 -27 -8 -6 3 -14 2 -18 -3 -12 -18 -107 -30 -172 -21
-88 11 -105 16 -164 44 -34 16 -20 14 80 -16 113 -33 198 -24 318 35 55 27
167 132 167 156 0 6 5 7 12 3 6 -4 9 -3 5 2 -3 5 6 41 19 79 28 84 32 197 9
286 -9 33 -13 65 -9 72 4 7 3 9 -1 4 -5 -4 -19 12 -32 35 -19 33 -21 43 -11
51 10 6 9 8 -3 4 -10 -3 -29 8 -50 30 -114 119 -294 163 -451 109 -38 -12 -68
-19 -68 -15 0 11 16 20 47 25 15 3 34 10 41 17 8 6 27 10 44 9 20 -2 27 1 22
9 -4 8 1 9 17 3 13 -4 64 -8 113 -8 80 -2 90 -4 104 -24 14 -22 40 -32 26 -11
-4 8 0 8 15 0 16 -9 21 -9 21 0 0 7 3 10 6 7 3 -4 1 -16 -6 -27 -9 -17 -8 -21
5 -22 29 -3 33 -4 42 -13 5 -5 3 -6 -4 -2 -7 4 -13 2 -13 -4 0 -7 6 -10 13 -8
16 6 21 66 6 84 -8 9 -8 14 0 14 17 0 8 133 -10 139 -12 3 -12 2 -1 -11 7 -10
9 -19 4 -22 -6 -3 -12 3 -15 14 -3 11 -1 22 4 25 4 3 -6 19 -23 35 -17 17 -26
30 -19 30 7 0 9 5 6 10 -3 6 4 10 17 11 44 1 -13 18 -64 18 -26 1 -49 5 -52
10 -3 5 -15 11 -26 14 -12 3 -18 1 -14 -5 7 -11 -109 -6 -139 7 -9 4 -30 4
-45 1 -15 -4 -40 -9 -57 -11 -71 -10 -145 -30 -145 -38 0 -5 -6 -7 -14 -4 -8
3 -22 -1 -33 -8 -10 -8 -22 -14 -28 -15 -30 0 60 42 129 61 145 39 227 46 353
28z m-517 -106 c0 -5 -19 -19 -43 -32 -47 -26 -45 -21 5 15 38 26 38 27 38 17z
m614 -20 c-7 20 6 23 24 5 17 -17 15 -28 -6 -28 -11 0 -27 10 -38 23 l-19 22
23 -19 c19 -17 22 -17 16 -3z m-19 -153 c3 -5 1 -10 -4 -10 -6 0 -11 5 -11 10
0 6 2 10 4 10 3 0 8 -4 11 -10z m75 -35 c0 -7 5 -15 12 -17 7 -3 4 -7 -7 -12
-11 -4 -16 -4 -13 -1 4 4 3 18 -3 32 -6 16 -6 22 1 18 6 -3 10 -12 10 -20z
m-165 -19 c185 -49 304 -211 305 -411 0 -148 -35 -237 -126 -328 -56 -55 -102
-79 -196 -104 -87 -23 -190 -10 -283 36 -284 140 -284 626 0 774 92 47 201 60
300 33z m-345 -34 c-42 -27 -120 -110 -120 -126 0 -8 -4 -17 -9 -20 -5 -4 -6
4 -3 18 7 25 89 117 119 135 29 17 40 11 13 -7z m-430 -37 c-6 -15 -13 -25
-16 -23 -2 3 1 17 7 32 16 34 23 27 9 -9z m-37 -85 c-3 -12 -8 -19 -11 -16 -5
6 5 36 12 36 2 0 2 -9 -1 -20z m326 -47 c0 -5 -9 -26 -20 -48 -17 -36 -19 -37
-14 -10 4 25 9 47 14 63 2 6 21 1 20 -5z m-45 -180 c-11 -156 34 -285 134
-380 30 -29 52 -53 48 -53 -4 0 -32 24 -63 53 -100 94 -146 238 -128 404 10
93 16 77 9 -24z m-327 -75 c-2 -13 -4 -3 -4 22 0 25 2 35 4 23 2 -13 2 -33 0
-45z m10 -85 c-3 -10 -5 -4 -5 12 0 17 2 24 5 18 2 -7 2 -21 0 -30z m1083
-228 c11 -13 10 -14 -4 -9 -9 3 -16 10 -16 15 0 13 6 11 20 -6z m-810 -251 c0
-3 -13 4 -30 16 -16 12 -30 24 -30 26 0 3 14 -4 30 -16 17 -12 30 -24 30 -26z
m75 -52 c-3 -3 -11 0 -18 7 -9 10 -8 11 6 5 10 -3 15 -9 12 -12z m111 -50 c-5
-4 -96 35 -96 42 0 2 22 -5 50 -17 27 -11 48 -23 46 -25z m243 -29 c89 -3 139
-8 130 -14 -32 -20 -269 -3 -308 22 -12 8 -10 9 9 3 14 -4 90 -9 169 -11z"/>
<path d="M5795 4410 c3 -5 8 -10 11 -10 2 0 4 5 4 10 0 6 -5 10 -11 10 -5 0
-7 -4 -4 -10z"/>
<path d="M5956 4255 c4 -8 10 -15 15 -15 5 0 9 -7 9 -15 0 -8 4 -15 10 -15 5
0 9 11 8 25 -1 13 -4 22 -6 20 -3 -2 -13 0 -23 6 -15 7 -17 6 -13 -6z"/>
<path d="M6020 3935 c0 -5 5 -17 10 -25 5 -8 10 -10 10 -5 0 6 -5 17 -10 25
-5 8 -10 11 -10 5z"/>
<path d="M5985 3770 c3 -5 8 -10 11 -10 2 0 4 5 4 10 0 6 -5 10 -11 10 -5 0
-7 -4 -4 -10z"/>
<path d="M6075 3480 c-3 -6 1 -7 9 -4 18 7 21 14 7 14 -6 0 -13 -4 -16 -10z"/>
<path d="M4022 4750 c-138 -36 -247 -110 -312 -212 -82 -126 -91 -272 -25
-405 65 -131 178 -206 422 -277 129 -38 220 -71 240 -88 7 -5 19 -29 29 -53
15 -41 15 -46 -2 -81 -56 -113 -296 -118 -460 -10 -22 14 -50 34 -64 45 -14
11 -34 21 -45 21 -34 0 -195 -178 -195 -215 0 -30 82 -104 165 -150 122 -68
234 -95 397 -96 249 -1 436 98 525 279 37 75 38 78 38 192 0 111 -1 118 -33
183 -36 73 -114 157 -174 188 -56 29 -130 54 -271 94 -208 58 -252 87 -252
166 0 26 8 46 25 64 43 46 78 59 160 58 104 -1 143 -17 285 -118 9 -6 23 -6
39 0 27 11 186 201 186 223 0 24 -81 90 -161 132 -150 78 -356 102 -517 60z
m608 -264 c0 -2 -8 -10 -17 -17 -16 -13 -17 -12 -4 4 13 16 21 21 21 13z m-40
-50 c0 -2 -8 -10 -17 -17 -16 -13 -17 -12 -4 4 13 16 21 21 21 13z m112 -609
c18 -60 23 -178 9 -227 -5 -14 -6 16 -3 66 4 74 1 105 -17 162 -11 38 -28 75
-36 82 -8 7 -15 20 -15 29 0 27 42 -49 62 -112z m-112 -430 c0 -2 -12 -14 -27
-28 l-28 -24 24 28 c23 25 31 32 31 24z"/>
<path d="M6492 4728 c-16 -16 -18 -1443 -2 -1453 20 -13 334 -5 342 8 4 7 8
130 8 275 l0 262 255 0 c241 0 255 1 265 19 5 11 10 74 10 141 0 67 -5 130
-10 141 -10 18 -24 19 -265 19 l-255 0 0 140 0 140 303 2 302 3 0 155 0 155
-470 3 c-358 2 -474 -1 -483 -10z m943 -153 l0 -140 -305 -2 -305 -2 -3 -156
-3 -155 266 0 265 0 0 -140 0 -140 -267 0 -268 0 3 -274 3 -274 -23 -4 c-13
-3 -48 -4 -78 -3 -30 0 -92 2 -137 3 l-83 2 0 715 0 715 468 -2 467 -3 0 -140z"/>
<path d="M6607 3303 c18 -2 50 -2 70 0 21 2 7 4 -32 4 -38 0 -55 -2 -38 -4z"/>
<path d="M7552 4728 c-14 -14 -17 -293 -4 -302 4 -2 97 -6 205 -7 l197 -3 0
-567 c0 -492 2 -568 15 -579 11 -9 54 -11 170 -7 86 4 160 9 165 12 6 4 10
219 10 571 0 444 3 564 13 565 6 0 87 0 180 0 102 -1 175 3 187 9 19 10 20 21
20 153 0 98 -4 147 -12 155 -17 17 -1129 17 -1146 0z m1138 -154 l0 -145 -195
3 c-189 3 -196 2 -200 -17 -3 -11 -4 -135 -3 -275 0 -140 0 -391 -1 -556 l-1
-301 -152 -2 c-84 -1 -157 2 -163 6 -13 10 -12 -44 -13 588 l-2 555 -195 0
c-185 0 -195 1 -205 20 -11 21 -9 247 2 266 4 5 225 8 567 6 l561 -2 0 -146z"/>
<path d="M8395 4699 c4 -5 12 -9 18 -8 7 1 33 1 60 0 41 -1 47 -4 47 -22 0
-14 -5 -19 -15 -16 -19 8 -31 -13 -14 -23 7 -5 16 -7 19 -5 4 2 7 -3 7 -11 0
-10 -4 -11 -11 -4 -16 16 -25 12 -23 -10 1 -14 6 -18 19 -14 16 5 24 -9 19
-38 0 -4 8 -5 19 -3 12 2 20 -2 20 -10 0 -7 7 -15 15 -19 8 -3 15 -11 15 -17
0 -8 -4 -8 -15 1 -12 10 -15 10 -15 -3 0 -16 12 -17 88 -8 7 0 12 15 11 39 0
30 -2 33 -9 17 -7 -15 -9 -16 -9 -4 -1 9 7 23 16 30 11 10 14 10 9 2 -4 -7 -2
-13 3 -13 12 0 15 62 4 73 -3 4 -12 -1 -19 -11 -13 -16 -13 -16 -14 1 0 26 -1
31 -11 50 -6 11 -6 17 1 17 5 0 10 4 10 10 0 6 -50 9 -125 9 -79 0 -123 -4
-120 -10z m205 -84 c0 -8 -4 -15 -9 -15 -5 0 -11 7 -15 15 -3 9 0 15 9 15 8 0
15 -7 15 -15z m-3 -39 c0 -6 -8 -13 -17 -13 -9 -1 -17 4 -17 11 0 6 8 13 17
13 9 1 17 -4 17 -11z m0 -48 c-3 -8 -6 -5 -6 6 -1 11 2 17 5 13 3 -3 4 -12 1
-19z"/>
<path d="M5890 3171 c-14 -5 -54 -28 -90 -53 -36 -25 -85 -56 -110 -69 l-45
-24 -1343 -3 -1343 -2 -49 54 c-32 34 -68 61 -102 76 -117 50 -270 4 -344
-103 -44 -64 -57 -117 -51 -203 12 -158 116 -262 273 -272 65 -4 79 -1 136 25
42 20 75 44 97 71 l32 41 1357 3 1357 3 70 23 c133 45 181 78 338 231 144 141
175 184 146 202 -17 11 -294 10 -329 0z m320 -25 c0 -22 -58 -79 -71 -70 -8 4
-9 3 -5 -4 9 -14 -162 -184 -236 -236 -71 -49 -180 -85 -287 -97 -112 -11
-361 -12 -361 0 0 5 48 8 108 7 132 -3 343 10 351 21 3 4 12 8 19 9 39 3 43 5
36 16 -4 6 -3 8 3 5 17 -11 73 13 73 31 0 15 2 15 10 2 6 -10 10 -11 10 -2 0
6 7 12 14 12 19 0 68 45 59 53 -3 4 1 7 10 7 10 0 17 4 17 8 0 5 16 27 36 51
24 27 42 40 52 36 12 -4 13 -3 3 9 -10 12 -8 17 8 26 12 6 21 18 21 26 0 8 4
13 9 10 17 -11 30 18 17 36 -10 14 -32 17 -135 19 -115 1 -124 0 -137 -20 -9
-12 -19 -19 -24 -16 -9 6 -25 -13 -25 -30 0 -5 -7 -10 -15 -10 -8 0 -37 -11
-65 -25 l-50 -25 -550 0 -550 -1 545 6 c608 6 563 0 679 81 112 79 109 78 279
79 123 0 152 -3 152 -14z"/>
<path d="M5938 3133 c7 -3 16 -2 19 1 4 3 -2 6 -13 5 -11 0 -14 -3 -6 -6z"/>
<path d="M6675 2930 c-65 -10 -168 -54 -225 -95 -25 -19 -146 -136 -270 -260
-124 -125 -234 -231 -245 -237 -65 -36 -107 -38 -857 -38 l-736 0 -30 53 c-96
171 -306 257 -523 217 -124 -23 -270 -131 -331 -246 -99 -184 -66 -413 82
-563 102 -103 220 -146 375 -138 106 5 173 25 240 69 91 61 148 130 190 235
l24 58 758 5 c842 6 806 4 943 76 55 28 108 76 306 275 162 163 254 249 286
265 l47 24 529 0 529 0 44 23 c56 30 80 71 81 138 0 56 -16 86 -66 123 -27 21
-39 21 -564 22 -295 1 -559 -2 -587 -6z m1135 -25 c60 -31 85 -137 44 -192
-47 -64 -34 -63 -619 -63 l-530 0 -50 -24 c-34 -16 -88 -62 -165 -140 -63 -64
-118 -116 -122 -116 -4 0 4 11 18 25 14 14 22 30 19 35 -3 6 -1 10 5 10 7 0
10 7 6 18 -6 16 -5 16 8 -1 13 -17 14 -16 19 3 3 11 12 20 21 20 12 0 16 10
16 44 0 41 1 43 25 38 14 -2 32 1 40 8 14 11 14 16 -1 38 -9 13 -12 22 -7 19
5 -3 16 3 23 14 8 10 19 19 26 19 6 0 11 14 12 30 0 23 -4 30 -19 30 -10 0
-19 5 -19 10 0 6 -9 10 -20 10 -16 0 -20 7 -20 30 0 17 -2 30 -4 30 -2 0 -12
3 -21 6 -13 5 -15 2 -9 -20 3 -15 2 -26 -2 -24 -20 5 -55 -14 -50 -28 3 -8 1
-14 -4 -14 -6 0 -10 5 -10 10 0 6 -7 10 -15 10 -8 0 -15 -4 -15 -10 0 -5 -7
-10 -15 -10 -14 0 -19 -12 -16 -32 0 -5 -6 -8 -14 -8 -23 0 -78 -57 -69 -71 5
-8 3 -9 -6 -4 -8 5 -25 -6 -49 -32 -20 -21 -45 -45 -56 -53 -20 -14 18 28 156
174 76 80 172 156 225 177 117 47 118 48 692 48 467 1 547 -1 572 -14z m-1670
-404 c0 -10 -128 -141 -137 -141 -5 0 126 144 135 149 1 0 2 -3 2 -8z m105
-261 c-66 -66 -121 -117 -124 -115 -2 3 10 17 27 31 17 15 29 30 26 35 -3 5 1
9 8 9 16 0 138 126 138 143 0 7 10 13 22 14 16 2 -9 -29 -97 -117z m-285 85
c-7 -8 -17 -15 -23 -15 -6 0 -2 7 9 15 25 19 30 19 14 0z m-105 -45 c-11 -5
-128 -8 -260 -7 l-240 1 245 6 c135 3 252 6 260 7 8 1 6 -2 -5 -7z m-1903 -20
c49 -14 104 -76 113 -128 3 -22 1 -58 -5 -80 -40 -152 -252 -177 -319 -38 -72
148 50 290 211 246z m2153 -150 c-3 -5 -16 -15 -28 -21 -21 -10 -21 -9 2 10
25 23 36 27 26 11z m-65 -36 c0 -6 -65 -34 -77 -34 -9 1 57 37 70 39 4 1 7 -1
7 -5z m-113 -40 c-3 -3 -12 -4 -19 -1 -8 3 -5 6 6 6 11 1 17 -2 13 -5z m-64
-11 c-13 -2 -33 -2 -45 0 -13 2 -3 4 22 4 25 0 35 -2 23 -4z"/>
<path d="M6576 2864 c-24 -17 -19 -23 11 -15 14 4 20 10 15 18 -5 8 -12 8 -26
-3z"/>
<path d="M6415 2770 c-3 -5 1 -10 10 -10 9 0 13 5 10 10 -3 6 -8 10 -10 10 -2
0 -7 -4 -10 -10z"/>
</g>
</svg>
